# xmcd CD database file
#
# Track frame offsets:
#	150
#	9027
#	23735
#	34095
#	47322
#	58220
#	67572
#	80790
#	89915
#	101305
#	113990
#	123992
#
# Disc length: 1774 seconds
#
# Revision: 1
# Processed by: cddbd v1.5.2PL0 Copyright (c) Steve Scherf et al.
# Submitted via: CDex 1.70beta2
#
DISCID=8c06ec0c
DTITLE=Debbie Reynolds - Fine And Dandy
DYEAR=1960
DGENRE=Oldies
TTITLE0=A Shine On Your Shoes (Dietz)
TTITLE1=You're The Cream In My Coffee (DeSylva)
TTITLE2=Sing Something Simple (Hupfeld)
TTITLE3=Ain't We Got Fun (Whiting-Kahn-Egon)
TTITLE4=Give Me The Simple Life (Ruby-Bloom)
TTITLE5=Zip-A-Dee-Doo-Dah (Gilbert-Wrubel)
TTITLE6=Fine And Dandy (James-Swift)
TTITLE7=I Want To Be Happy (Caesar-Youmans)
TTITLE8=Gimme A Little Kiss, Will Yah, Huh (Turk-Smith-Pinkard)
TTITLE9=Pick Yourself Up (Fields-Kern)
TTITLE10=Life Is Just A Bowl Of Cherries (Brown-Henderson)
TTITLE11=Gotta Have Me Go With You
EXTD=YEAR: 1960
EXTT0=
EXTT1=
EXTT2=
EXTT3=
EXTT4=
EXTT5=
EXTT6=
EXTT7=
EXTT8=
EXTT9=
EXTT10=
EXTT11=
PLAYORDER=
